<svg xmlns="http://www.w3.org/2000/svg" version="1.1" xmlns:xlink="http://www.w3.org/1999/xlink" xmlns:svgjs="http://svgjs.dev/svgjs" width="1500" height="325" viewBox="0 0 1500 325"><g transform="matrix(1,0,0,1,-0.9090909090909918,3.954982641900216)"><svg viewBox="0 0 396 86" data-background-color="#ffffff" preserveAspectRatio="xMidYMid meet" height="325" width="1500" xmlns="http://www.w3.org/2000/svg" xmlns:xlink="http://www.w3.org/1999/xlink"><g id="tight-bounds" transform="matrix(1,0,0,1,0.2400000000000091,-0.11886918505123845)"><svg viewBox="0 0 395.52 86.23773837010246" height="86.23773837010246" width="395.52"><g><svg viewBox="0 0 433.01564837762174 94.41315279871974" height="86.23773837010246" width="395.52"><g><svg viewBox="0 0 433.01564837762174 94.41315279871974" height="94.41315279871974" width="433.01564837762174"><g id="textblocktransform"><svg viewBox="0 0 433.01564837762174 94.41315279871974" height="94.41315279871974" width="433.01564837762174" id="textblock"><g><svg viewBox="0 0 433.01564837762174 61.07950000000002" height="61.07950000000002" width="433.01564837762174"><g><svg><g></g><g></g></svg></g><g><svg><g></g><g><svg></svg></g></svg></g><g id="text-0"><svg viewBox="0 0 433.01564837762174 61.07950000000002" height="61.07950000000002" width="433.01564837762174"><g><svg xmlns="http://www.w3.org/2000/svg" xml:space="preserve" viewBox="3.1499364915523493 9.247971987846844 89.10432990633943 77.75253449478625" x="0" y="0" height="61.07950000000002" width="69.9970483776218" class="icon-dxe-0" data-fill-palette-color="accent" id="dxe-0"><path d="M92.067 57.525l-0.487-1.504a3.925 3.925 0 0 0-4.935-2.528L47.026 66.335a4.2 4.2 0 0 0-0.876 0.404 12.4 12.4 0 0 0-7.027-4.349c-0.08-0.425-0.198-0.894-0.36-1.391L24.631 17.484c-0.667-2.052-2.907-4.229-4.978-4.841L8.625 9.405a3.937 3.937 0 0 0-4.872 2.662l-0.445 1.514a3.934 3.934 0 0 0 2.658 4.872l6.241 1.838c2.071 0.606 4.31 2.784 4.979 4.836L29.374 62.62c0.162 0.495 0.362 0.941 0.585 1.333-3.303 2.037-5.619 5.575-5.908 9.735-0.475 6.848 4.709 12.808 11.56 13.282 6.826 0.476 12.761-4.675 13.275-11.486 0.36-0.021 0.733-0.077 1.124-0.204l39.526-12.809a3.944 3.944 0 0 0 2.531-4.946m-55.965 22.39a5.384 5.384 0 0 1-4.994-5.739 5.384 5.384 0 0 1 5.738-4.994 5.383 5.383 0 0 1 4.992 5.739 5.384 5.384 0 0 1-5.736 4.994" fill="#8d021f" data-fill-palette-color="accent"></path><path d="M43.312 57.67a3.933 3.933 0 0 0 4.938 2.527l31.949-10.299a3.934 3.934 0 0 0 2.53-4.939l-8.387-26.055a3.917 3.917 0 0 0-4.937-2.517l-6.71 2.194a3.954 3.954 0 0 0-2.521 4.954l0.893 2.756a3.927 3.927 0 0 1-2.525 4.936l-4.064 1.307a3.95 3.95 0 0 1-4.944-2.533l-0.893-2.758a3.957 3.957 0 0 0-4.947-2.542l-6.237 1.986a3.92 3.92 0 0 0-2.537 4.926z" fill="#8d021f" data-fill-palette-color="accent"></path><path d="M51.932 27.086a2.59 2.59 0 0 0 3.284 1.664l0.328-0.107a2.656 2.656 0 0 0 1.68-3.317l-0.674-2.099a2.59 2.59 0 0 0-3.284-1.666l-0.327 0.109a2.66 2.66 0 0 0-1.683 3.316z" fill="#8d021f" data-fill-palette-color="accent"></path></svg></g><g transform="matrix(1,0,0,1,84.4175483776218,3.552713678800501e-15)"><svg width="348.59809999999993" viewBox="2 -37.55 215.43 37.75" height="61.07950000000001" data-palette-color="#ee3e38"><path d="M5.1-31.05Q5.1-34.5 7.35-36.02 9.6-37.55 12.1-37.55 14.6-37.55 16-37L16-37 15.85-34.65Q14.65-34.8 13.78-34.8 12.9-34.8 12.08-34.63 11.25-34.45 10.35-34L10.35-34Q8.35-32.9 8.35-29.9L8.35-29.9 8.35-25 14.4-25 14.4-22.1 8.35-22.1 8.35-2.5 12.6-2.5 12.6 0 2 0 2-2.5 5.1-2.5 5.1-22.1 2.55-22.1 2.95-24.5 5.1-24.95 5.1-31.05ZM21.35-35L18-35 18-37.5 24.6-37.5 24.6-2.5 28.35-2.5 28.35 0 18.25 0 18.25-2.5 21.35-2.5 21.35-35ZM41.27 0.2Q36.05 0.2 32.82-2.8 29.6-5.8 29.6-11.98 29.6-18.15 33.02-21.68 36.45-25.2 41.65-25.2 46.84-25.2 50.09-22.2 53.34-19.2 53.34-13.03 53.34-6.85 49.92-3.33 46.5 0.2 41.27 0.2ZM41.57-22.3Q37.84-22.3 35.34-19.6 32.84-16.9 32.84-12.28 32.84-7.65 35.22-5.18 37.59-2.7 41.34-2.7 45.09-2.7 47.59-5.38 50.09-8.05 50.09-12.68 50.09-17.3 47.7-19.8 45.3-22.3 41.57-22.3ZM58.09-22.5L54.64-22.5 54.64-25 65.14-25 65.14-22.5 61.79-22.5 67.34-4.05 73.89-24.75 77.09-25 82.59-4.05 89.04-22.5 85.64-22.5 85.64-25 95.64-25 95.64-22.5 92.74-22.5 84.19 0 81.19 0 75.34-19.85 68.59 0 65.59 0 58.09-22.5ZM115.84 0L105.79 0 105.79-2.75 109.04-2.75 109.04-32 101.69-32 101.14-27.4 98.69-27.8 99.29-35 122.09-35 122.74-27.8 120.24-27.4 119.64-32 112.19-32 112.19-2.75 115.84-2.75 115.84 0ZM131.34-16.75L131.34-2.5 135.49-2.5 135.49 0 124.99 0 124.99-2.5 128.09-2.5 128.09-22.5 124.74-22.5 124.74-25 131.34-25 131.34-18.95Q135.29-24.75 139.09-24.85L139.09-24.85Q139.39-24.85 139.69-24.85L139.69-24.85 142.49-24.5 141.19-21.5Q140.24-21.95 138.74-21.95L138.74-21.95Q135.14-21.9 131.34-16.75L131.34-16.75ZM152.59 0.2L152.59 0.2Q145.94 0.2 145.54-5.05L145.54-5.05Q145.49-5.4 145.49-5.75L145.49-5.75Q145.49-9.95 150.54-11.35L150.54-11.35Q153.34-12.05 161.34-12.95L161.34-12.95 161.34-16.8Q161.34-22.25 155.64-22.25L155.64-22.25Q151.54-22.2 146.94-20.35L146.94-20.35 146.09-22.5 146.59-22.7Q150.49-24.4 152.54-24.75 154.59-25.1 155.54-25.13 156.49-25.15 157.36-25.1 158.24-25.05 159.64-24.65 161.04-24.25 162.06-23.53 163.09-22.8 163.84-21.35 164.59-19.9 164.59-17.9L164.59-17.9 164.59-2.5 168.44-2.5 168.44 0 161.84 0 161.34-1.9Q156.84 0.2 152.59 0.2ZM153.49-2.1L153.49-2.1Q157.29-2.1 161.34-3.8L161.34-3.8 161.34-10.95Q153.84-10.7 151.64-9.95L151.64-9.95Q149.94-9.5 149.24-8.33 148.54-7.15 148.54-6.45 148.54-5.75 148.54-5.5L148.54-5.5Q148.69-3.7 150.09-2.9 151.49-2.1 153.49-2.1ZM182.43-22.3L182.43-22.3Q178.18-22.3 175.56-19.48 172.93-16.65 172.93-11.55L172.93-11.55Q172.93-2.7 181.18-2.7L181.18-2.7Q184.38-2.7 186.53-3.23 188.68-3.75 188.88-3.9L188.88-3.9 189.58-1.55Q188.43-0.8 185.78-0.3 183.13 0.2 180.98 0.2 178.83 0.2 177.08-0.25 175.33-0.7 173.56-1.85 171.78-3 170.73-5.48 169.68-7.95 169.68-11.5L169.68-11.5Q169.68-18.05 173.03-21.4L173.03-21.4Q176.78-25.25 182.48-25.25L182.48-25.25Q184.28-25.25 186.31-24.78 188.33-24.3 189.43-23.3L189.43-23.3 189.43-16.75 186.98-16.4 186.73-21.65Q184.68-22.3 182.43-22.3ZM207.83-22.5L205.78-22.5 205.78-25 216.28-25 216.28-22.5 211.58-22.5 203.18-13.3 212.68-2.5 217.43-2.5 217.43 0 211.08 0 199.93-13.3 199.93-2.5 203.68-2.5 203.68 0 193.58 0 193.58-2.5 196.68-2.5 196.68-35 193.33-35 193.33-37.5 199.93-37.5 199.93-13.3 207.83-22.5Z" opacity="1" transform="matrix(1,0,0,1,0,0)" fill="#ee3e38" class="wordmark-text-0" data-fill-palette-color="primary"></path></svg></g></svg></g></svg></g><g transform="matrix(1,0,0,1,82.70598884012574,75.49890404200002)"><svg viewBox="0 0 267.60367069737026 18.914248756719715" height="18.914248756719715" width="267.60367069737026"><g transform="matrix(1,0,0,1,0,0)"><svg width="267.60367069737026" viewBox="1.63 -33.13 477.08 33.730000000000004" height="18.914248756719715" data-palette-color="#8d021f"><path d="M15.35 0L11.2 0 11.2-31.28 15.35-31.28 15.35 0ZM24.93-28.48L1.63-28.48 1.63-31.95 24.93-31.95 24.93-28.48ZM33.7-14.93L33.7-14.93 32.77-18.05 33.77-18.1Q34.57-21.2 36.52-22.99 38.47-24.78 41.7-24.78L41.7-24.78Q42.5-24.78 43.14-24.65 43.77-24.53 44.27-24.35L44.27-24.35 44.52-20.43Q43.9-20.63 43.14-20.75 42.37-20.88 41.45-20.88L41.45-20.88Q38.7-20.88 36.66-19.35 34.62-17.82 33.7-14.93ZM33.9 0L29.85 0 29.85-24.4 33.8-24.4 33.6-17.2 33.9-16.9 33.9 0ZM67 0L62.97 0 63.15-5.93 63-6.55 63-14.33 63.02-15.75Q63.02-18.73 61.51-20.15 60-21.58 56.72-21.58L56.72-21.58Q54.1-21.58 51.91-20.83 49.72-20.08 48.02-19.07L48.02-19.07 48.4-22.53Q49.35-23.1 50.66-23.66 51.97-24.23 53.66-24.6 55.35-24.98 57.37-24.98L57.37-24.98Q60-24.98 61.83-24.34 63.67-23.7 64.81-22.5 65.95-21.3 66.47-19.6 67-17.9 67-15.8L67-15.8 67 0ZM54.57 0.53L54.57 0.53Q50.95 0.53 49.01-1.24 47.07-3 47.07-6.28L47.07-6.28 47.07-7Q47.07-10.38 49.16-12.04 51.25-13.7 55.8-14.35L55.8-14.35 63.52-15.45 63.75-12.5 56.3-11.43Q53.5-11.03 52.3-10.06 51.1-9.1 51.1-7.23L51.1-7.23 51.1-6.83Q51.1-4.9 52.28-3.88 53.47-2.85 55.85-2.85L55.85-2.85Q57.95-2.85 59.45-3.58 60.95-4.3 61.87-5.53 62.8-6.75 63.12-8.25L63.12-8.25 63.75-5.5 62.97-5.5Q62.62-3.9 61.66-2.53 60.7-1.15 58.97-0.31 57.25 0.53 54.57 0.53ZM82.59 0.55L82.59 0.55Q77.34 0.55 74.78-2.29 72.22-5.13 72.22-10.33L72.22-10.33 72.22-14.13Q72.22-19.35 74.79-22.16 77.37-24.98 82.59-24.98L82.59-24.98Q84.14-24.98 85.42-24.69 86.69-24.4 87.71-23.94 88.72-23.48 89.42-22.98L89.42-22.98 89.77-19.45Q88.59-20.35 86.98-20.98 85.37-21.6 83.19-21.6L83.19-21.6Q79.69-21.6 77.98-19.66 76.27-17.73 76.27-14.03L76.27-14.03 76.27-10.43Q76.27-6.8 77.98-4.85 79.69-2.9 83.19-2.9L83.19-2.9Q85.44-2.9 87.08-3.53 88.72-4.15 89.99-5.05L89.99-5.05 89.62-1.48Q88.52-0.73 86.74-0.09 84.97 0.55 82.59 0.55ZM115.59 0L110.74 0 101.09-11.38 98.52-11.38 98.52-14.53 101.09-14.53 110.34-24.4 115.14-24.4 104.07-12.63 104.07-13.6 115.59 0ZM98.92 0L94.89 0 94.89-33.13 98.92-33.13 98.92 0ZM134.39-31.95L134.39 0 130.24 0 130.24-31.95 134.39-31.95ZM150.38 0.5L150.38 0.5Q147.56 0.5 145.83-0.35 144.11-1.2 143.33-2.93 142.56-4.65 142.56-7.23L142.56-7.23 142.56-22.63 146.56-22.63 146.56-7.7Q146.56-5.3 147.66-4.16 148.76-3.03 151.36-3.03L151.36-3.03Q152.83-3.03 154.2-3.35 155.56-3.68 156.76-4.28L156.76-4.28 156.38-0.8Q155.21-0.2 153.63 0.15 152.06 0.5 150.38 0.5ZM156.13-20.8L138.56-20.8 138.56-24.05 156.51-24.05 156.13-20.8ZM146.46-23.65L142.58-23.65 142.56-30.5 146.63-31.03 146.46-23.65ZM162.76 0.48L162.76 0.48Q161.46 0.48 160.84-0.24 160.23-0.95 160.23-2.25L160.23-2.25 160.23-2.5Q160.23-3.78 160.84-4.48 161.46-5.18 162.76-5.18L162.76-5.18Q164.03-5.18 164.66-4.48 165.28-3.78 165.28-2.5L165.28-2.5 165.28-2.25Q165.28-0.95 164.66-0.24 164.03 0.48 162.76 0.48ZM192.98 0L188.83 0 188.83-31.28 192.98-31.28 192.98 0ZM202.55-28.48L179.25-28.48 179.25-31.95 202.55-31.95 202.55-28.48ZM211.32-14.93L211.32-14.93 210.4-18.05 211.4-18.1Q212.2-21.2 214.15-22.99 216.1-24.78 219.32-24.78L219.32-24.78Q220.12-24.78 220.76-24.65 221.4-24.53 221.9-24.35L221.9-24.35 222.15-20.43Q221.52-20.63 220.76-20.75 220-20.88 219.07-20.88L219.07-20.88Q216.32-20.88 214.29-19.35 212.25-17.82 211.32-14.93ZM211.52 0L207.47 0 207.47-24.4 211.42-24.4 211.22-17.2 211.52-16.9 211.52 0ZM244.62 0L240.6 0 240.77-5.93 240.62-6.55 240.62-14.33 240.65-15.75Q240.65-18.73 239.13-20.15 237.62-21.58 234.35-21.58L234.35-21.58Q231.72-21.58 229.53-20.83 227.35-20.08 225.65-19.07L225.65-19.07 226.02-22.53Q226.97-23.1 228.28-23.66 229.6-24.23 231.28-24.6 232.97-24.98 235-24.98L235-24.98Q237.62-24.98 239.46-24.34 241.3-23.7 242.43-22.5 243.57-21.3 244.1-19.6 244.62-17.9 244.62-15.8L244.62-15.8 244.62 0ZM232.2 0.53L232.2 0.53Q228.57 0.53 226.63-1.24 224.7-3 224.7-6.28L224.7-6.28 224.7-7Q224.7-10.38 226.78-12.04 228.87-13.7 233.42-14.35L233.42-14.35 241.15-15.45 241.37-12.5 233.92-11.43Q231.12-11.03 229.92-10.06 228.72-9.1 228.72-7.23L228.72-7.23 228.72-6.83Q228.72-4.9 229.91-3.88 231.1-2.85 233.47-2.85L233.47-2.85Q235.57-2.85 237.07-3.58 238.57-4.3 239.5-5.53 240.42-6.75 240.75-8.25L240.75-8.25 241.37-5.5 240.6-5.5Q240.25-3.9 239.28-2.53 238.32-1.15 236.6-0.31 234.87 0.53 232.2 0.53ZM260.22 0.55L260.22 0.55Q254.97 0.55 252.41-2.29 249.84-5.13 249.84-10.33L249.84-10.33 249.84-14.13Q249.84-19.35 252.42-22.16 254.99-24.98 260.22-24.98L260.22-24.98Q261.77-24.98 263.04-24.69 264.32-24.4 265.33-23.94 266.34-23.48 267.04-22.98L267.04-22.98 267.39-19.45Q266.22-20.35 264.61-20.98 262.99-21.6 260.82-21.6L260.82-21.6Q257.32-21.6 255.61-19.66 253.89-17.73 253.89-14.03L253.89-14.03 253.89-10.43Q253.89-6.8 255.61-4.85 257.32-2.9 260.82-2.9L260.82-2.9Q263.07-2.9 264.71-3.53 266.34-4.15 267.62-5.05L267.62-5.05 267.24-1.48Q266.14-0.73 264.37-0.09 262.59 0.55 260.22 0.55ZM282.77 0.55L282.77 0.55Q277.19 0.55 274.37-2.18 271.54-4.9 271.54-9.98L271.54-9.98 271.54-14.33Q271.54-19.48 274.17-22.26 276.79-25.05 281.84-25.05L281.84-25.05Q285.24-25.05 287.52-23.79 289.79-22.53 290.94-20.2 292.09-17.88 292.09-14.65L292.09-14.65 292.09-13.75Q292.09-12.95 292.03-12.15 291.97-11.35 291.87-10.58L291.87-10.58 288.14-10.58Q288.19-11.78 288.2-12.85 288.22-13.93 288.22-14.83L288.22-14.83Q288.22-17.05 287.5-18.59 286.79-20.13 285.38-20.94 283.97-21.75 281.84-21.75L281.84-21.75Q278.69-21.75 277.12-19.93 275.54-18.1 275.54-14.7L275.54-14.7 275.54-12.38 275.57-11.88 275.57-9.55Q275.57-8.03 276.02-6.8 276.47-5.58 277.43-4.69 278.39-3.8 279.88-3.34 281.37-2.88 283.42-2.88L283.42-2.88Q285.79-2.88 287.84-3.5 289.89-4.13 291.69-5.2L291.69-5.2 291.32-1.7Q289.69-0.68 287.54-0.06 285.39 0.55 282.77 0.55ZM291.02-10.58L273.67-10.58 273.67-13.63 291.02-13.63 291.02-10.58ZM312.26-31.95L312.26 0 308.11 0 308.11-31.95 312.26-31.95ZM328.26 0.5L328.26 0.5Q325.43 0.5 323.71-0.35 321.98-1.2 321.21-2.93 320.43-4.65 320.43-7.23L320.43-7.23 320.43-22.63 324.43-22.63 324.43-7.7Q324.43-5.3 325.53-4.16 326.63-3.03 329.23-3.03L329.23-3.03Q330.71-3.03 332.07-3.35 333.43-3.68 334.63-4.28L334.63-4.28 334.26-0.8Q333.08-0.2 331.51 0.15 329.93 0.5 328.26 0.5ZM334.01-20.8L316.43-20.8 316.43-24.05 334.38-24.05 334.01-20.8ZM324.33-23.65L320.46-23.65 320.43-30.5 324.51-31.03 324.33-23.65ZM340.63 0.48L340.63 0.48Q339.33 0.48 338.72-0.24 338.11-0.95 338.11-2.25L338.11-2.25 338.11-2.5Q338.11-3.78 338.72-4.48 339.33-5.18 340.63-5.18L340.63-5.18Q341.91-5.18 342.53-4.48 343.16-3.78 343.16-2.5L343.16-2.5 343.16-2.25Q343.16-0.95 342.53-0.24 341.91 0.48 340.63 0.48ZM369.1 0.6L369.1 0.6Q365.48 0.6 363.03-0.86 360.58-2.33 359.34-5.13 358.1-7.93 358.1-11.9L358.1-11.9 358.1-19.45Q358.1-25.75 361.34-29.14 364.58-32.52 370.85-32.52L370.85-32.52Q373.1-32.52 374.94-32.16 376.78-31.8 378.2-31.21 379.63-30.63 380.65-29.98L380.65-29.98 381.03-26.23Q379.3-27.33 376.96-28.15 374.63-28.98 371.55-28.98L371.55-28.98Q366.9-28.98 364.61-26.5 362.33-24.03 362.33-19.38L362.33-19.38 362.33-11.93Q362.33-7.63 364.34-5.29 366.35-2.95 370.38-2.95L370.38-2.95Q372.43-2.95 373.89-3.65 375.35-4.35 376.29-5.5 377.23-6.65 377.65-8.03L377.65-8.03 377.65-15.9 378.33-14.43 370.8-14.43 370.8-17.88 381.7-17.88 381.7-5.25 377.63-5.28Q377.23-3.73 376.25-2.38 375.28-1.03 373.53-0.21 371.78 0.6 369.1 0.6ZM377.65 0L377.83-6.6 381.7-6.6 381.7 0 377.65 0ZM398.55 0.55L398.55 0.55Q392.97 0.55 390.15-2.18 387.32-4.9 387.32-9.98L387.32-9.98 387.32-14.33Q387.32-19.48 389.95-22.26 392.57-25.05 397.62-25.05L397.62-25.05Q401.02-25.05 403.3-23.79 405.57-22.53 406.72-20.2 407.87-17.88 407.87-14.65L407.87-14.65 407.87-13.75Q407.87-12.95 407.81-12.15 407.75-11.35 407.65-10.58L407.65-10.58 403.92-10.58Q403.97-11.78 403.99-12.85 404-13.93 404-14.83L404-14.83Q404-17.05 403.29-18.59 402.57-20.13 401.16-20.94 399.75-21.75 397.62-21.75L397.62-21.75Q394.47-21.75 392.9-19.93 391.32-18.1 391.32-14.7L391.32-14.7 391.32-12.38 391.35-11.88 391.35-9.55Q391.35-8.03 391.8-6.8 392.25-5.58 393.21-4.69 394.17-3.8 395.66-3.34 397.15-2.88 399.2-2.88L399.2-2.88Q401.57-2.88 403.62-3.5 405.67-4.13 407.47-5.2L407.47-5.2 407.1-1.7Q405.47-0.68 403.32-0.06 401.17 0.55 398.55 0.55ZM406.8-10.58L389.45-10.58 389.45-13.63 406.8-13.63 406.8-10.58ZM422.15 0.5L422.15 0.5Q419.32 0.5 417.6-0.35 415.87-1.2 415.1-2.93 414.32-4.65 414.32-7.23L414.32-7.23 414.32-22.63 418.32-22.63 418.32-7.7Q418.32-5.3 419.42-4.16 420.52-3.03 423.12-3.03L423.12-3.03Q424.6-3.03 425.96-3.35 427.32-3.68 428.52-4.28L428.52-4.28 428.15-0.8Q426.97-0.2 425.4 0.15 423.82 0.5 422.15 0.5ZM427.9-20.8L410.32-20.8 410.32-24.05 428.27-24.05 427.9-20.8ZM418.22-23.65L414.35-23.65 414.32-30.5 418.4-31.03 418.22-23.65ZM447.82-31.95L447.82 0 443.67 0 443.67-31.95 447.82-31.95ZM463.81 0.5L463.81 0.5Q460.99 0.5 459.26-0.35 457.54-1.2 456.76-2.93 455.99-4.65 455.99-7.23L455.99-7.23 455.99-22.63 459.99-22.63 459.99-7.7Q459.99-5.3 461.09-4.16 462.19-3.03 464.79-3.03L464.79-3.03Q466.26-3.03 467.63-3.35 468.99-3.68 470.19-4.28L470.19-4.28 469.81-0.8Q468.64-0.2 467.06 0.15 465.49 0.5 463.81 0.5ZM469.56-20.8L451.99-20.8 451.99-24.05 469.94-24.05 469.56-20.8ZM459.89-23.65L456.01-23.65 455.99-30.5 460.06-31.03 459.89-23.65ZM476.19 0.48L476.19 0.48Q474.89 0.48 474.27-0.24 473.66-0.95 473.66-2.25L473.66-2.25 473.66-2.5Q473.66-3.78 474.27-4.48 474.89-5.18 476.19-5.18L476.19-5.18Q477.46-5.18 478.09-4.48 478.71-3.78 478.71-2.5L478.71-2.5 478.71-2.25Q478.71-0.95 478.09-0.24 477.46 0.48 476.19 0.48Z" opacity="1" transform="matrix(1,0,0,1,0,0)" fill="#8d021f" class="slogan-text-1" data-fill-palette-color="secondary" id="text-1"></path></svg></g></svg></g></svg></g></svg></g></svg></g><defs></defs></svg><rect width="395.52" height="86.23773837010246" fill="none" stroke="none" visibility="hidden"></rect></g></svg></g></svg>